<?xml version="1.0" encoding="utf-8"?>
<!-- Generator: Adobe Illustrator 22.0.1, SVG Export Plug-In . SVG Version: 6.00 Build 0)  -->
<svg version="1.1" id="Layer_1" xmlns="http://www.w3.org/2000/svg" xmlns:xlink="http://www.w3.org/1999/xlink" x="0px" y="0px"
	 viewBox="0 0 1200 1200" style="enable-background:new 0 0 1200 1200;" xml:space="preserve">
<style type="text/css">
	.st0{fill:#35495E;}
	.st1{font-family:'f-0-0';}
	.st2{font-size:198.7299px;}
	.st3{fill:#E6362C;}
	.st4{fill:#019589;}
	.st5{fill:#0092C6;}
</style>
<g>
	<text transform="matrix(1 0 0 1 139.8477 1006.4175)" class="st0 st1 st2">CANWealth</text>
	<path class="st0" d="M656.6,178c-152,0-275.3,123.3-275.3,275.3c0,152,123.3,275.3,275.3,275.3c54,0,105-15.8,147.6-42.6
		c-52.5,44.1-120.3,70.8-194.6,70.8C442.2,756.8,307,621.2,307,454.3c0-167.4,135.7-302.5,302.5-302.5c70.3,0,135.2,24.3,186.7,64.4
		C755.1,191.9,707.6,178,656.6,178L656.6,178z M656.6,178"/>
	<path class="st0" d="M679.3,677.6c5.9-1,12.4-2.5,18.3-4.5c24.3-11.4,46.5-26.2,61.4-46.5V337.9l-79.7,63.9V677.6z M679.3,677.6"/>
	<path class="st3" d="M476.3,593.9c19.8,29.2,47,53,79.7,68.3V475.1l-79.7,56.4V593.9z M476.3,593.9"/>
	<path class="st4" d="M576.3,670.2c20.3,6.9,42.1,10.9,64.9,10.9c5,0,9.9-0.5,14.4-0.5V409.7l-79.2,55V670.2z M576.3,670.2"/>
	<path class="st5" d="M787.3,642.5c88.1-88.1,88.1-231.7,0-319.9c-88.1-88.1-231.7-88.1-319.9,0c-31.7,31.2-52,69.8-60.9,110.4
		c5-56.4,28.7-111.4,71.8-154.5c97.1-97,254.5-97,352.1,0c97.1,97.1,97.1,254.5,0,352.1c-41.1,41.1-92.6,64.9-146.1,71.3
		C721.9,691.5,757.6,672.2,787.3,642.5L787.3,642.5z M787.3,642.5"/>
</g>
</svg>
