<?xml version="1.0" encoding="UTF-8" standalone="no"?>
<!-- Generator: Adobe Illustrator 22.0.1, SVG Export Plug-In . SVG Version: 6.00 Build 0)  -->

<svg
   xmlns:dc="http://purl.org/dc/elements/1.1/"
   xmlns:cc="http://creativecommons.org/ns#"
   xmlns:rdf="http://www.w3.org/1999/02/22-rdf-syntax-ns#"
   xmlns:svg="http://www.w3.org/2000/svg"
   xmlns="http://www.w3.org/2000/svg"
   xmlns:sodipodi="http://sodipodi.sourceforge.net/DTD/sodipodi-0.dtd"
   xmlns:inkscape="http://www.inkscape.org/namespaces/inkscape"
   version="1.1"
   id="Layer_1"
   x="0px"
   y="0px"
   viewBox="0 0 1200 435"
   xml:space="preserve"
   sodipodi:docname="logo_text_right.svg"
   width="1200"
   height="435"
   inkscape:version="0.92.2 (5c3e80d, 2017-08-06)"><metadata
     id="metadata3766"><rdf:RDF><cc:Work
         rdf:about=""><dc:format>image/svg+xml</dc:format><dc:type
           rdf:resource="http://purl.org/dc/dcmitype/StillImage" /><dc:title></dc:title></cc:Work></rdf:RDF></metadata><defs
     id="defs3764" /><sodipodi:namedview
     pagecolor="#ffffff"
     bordercolor="#666666"
     borderopacity="1"
     objecttolerance="10"
     gridtolerance="10"
     guidetolerance="10"
     inkscape:pageopacity="0"
     inkscape:pageshadow="2"
     inkscape:window-width="2736"
     inkscape:window-height="1779"
     id="namedview3762"
     showgrid="true"
     inkscape:zoom="2.0149341"
     inkscape:cx="639.52313"
     inkscape:cy="313.02908"
     inkscape:window-x="-13"
     inkscape:window-y="-13"
     inkscape:window-maximized="1"
     inkscape:current-layer="Layer_1"><inkscape:grid
       type="xygrid"
       id="grid3768" /></sodipodi:namedview><style
     type="text/css"
     id="style3745">
	.st0{fill:#35495E;}
	.st1{font-family:'f-0-0';}
	.st2{font-size:134.4095px;}
	.st3{fill:#E6362C;}
	.st4{fill:#019589;}
	.st5{fill:#0092C6;}
</style><g
     id="g3759"
     transform="matrix(1.0168774,0,0,1.0168774,-67.722285,-378.1167)"><text
       transform="translate(499.5822,711.9528)"
       class="st0 st1 st2"
       id="text3747"
       style="font-size:134.40950012px;font-family:f-0-0;fill:#35495e">CANWealth</text>
<path
       class="st0"
       d="m 311.8,397.8 c -102.8,0 -186.2,83.4 -186.2,186.2 0,102.8 83.4,186.2 186.2,186.2 36.5,0 71,-10.7 99.8,-28.8 -35.5,29.8 -81.4,47.9 -131.6,47.9 -113.2,0 -204.6,-91.8 -204.6,-204.6 0,-113.2 91.8,-204.6 204.6,-204.6 47.6,0 91.4,16.4 126.3,43.5 -27.9,-16.4 -60,-25.8 -94.5,-25.8 z m 0,0"
       id="path3749"
       inkscape:connector-curvature="0"
       style="fill:#35495e" /><path
       class="st0"
       d="m 327.2,735.7 c 4,-0.7 8.4,-1.7 12.4,-3 16.4,-7.7 31.5,-17.8 41.5,-31.5 V 506 l -53.9,43.2 z m 0,0"
       id="path3751"
       inkscape:connector-curvature="0"
       style="fill:#35495e" /><path
       class="st3"
       d="m 189.9,679.1 c 13.4,19.8 31.8,35.8 53.9,46.2 V 598.8 L 189.9,637 Z m 0,0"
       id="path3753"
       inkscape:connector-curvature="0"
       style="fill:#e6362c" /><path
       class="st4"
       d="m 257.5,730.7 c 13.7,4.7 28.5,7.4 43.9,7.4 3.3,0 6.7,-0.3 9.7,-0.3 V 554.6 l -53.6,37.2 z m 0,0"
       id="path3755"
       inkscape:connector-curvature="0"
       style="fill:#019589" /><path
       class="st5"
       d="m 400.2,712 c 59.6,-59.6 59.6,-156.7 0,-216.3 -59.6,-59.6 -156.7,-59.6 -216.3,0 -21.4,21.1 -35.2,47.2 -41.2,74.7 3.3,-38.2 19.4,-75.4 48.6,-104.5 65.6,-65.6 172.1,-65.6 238.1,0 65.6,65.6 65.6,172.1 0,238.1 -27.8,27.8 -62.6,43.9 -98.8,48.2 25.4,-7.1 49.5,-20.2 69.6,-40.2 z m 0,0"
       id="path3757"
       inkscape:connector-curvature="0"
       style="fill:#0092c6" /></g></svg>