<?xml version="1.0" encoding="utf-8"?>
<!-- Generator: Adobe Illustrator 22.0.1, SVG Export Plug-In . SVG Version: 6.00 Build 0)  -->
<svg version="1.1" id="Layer_1" xmlns="http://www.w3.org/2000/svg" xmlns:xlink="http://www.w3.org/1999/xlink" x="0px" y="0px"
	 viewBox="0 0 1200 1200" style="enable-background:new 0 0 1200 1200;" xml:space="preserve">
<style type="text/css">
	.st0{fill:#35495E;}
	.st1{font-family:'f-0-0';}
	.st2{font-size:134.4095px;}
	.st3{fill:#E6362C;}
	.st4{fill:#019589;}
	.st5{fill:#0092C6;}
</style>
<g>
	<text transform="matrix(1 0 0 1 499.5822 711.9528)" class="st0 st1 st2">CANWealth</text>
	<path class="st0" d="M311.8,397.8c-102.8,0-186.2,83.4-186.2,186.2c0,102.8,83.4,186.2,186.2,186.2c36.5,0,71-10.7,99.8-28.8
		c-35.5,29.8-81.4,47.9-131.6,47.9c-113.2,0-204.6-91.8-204.6-204.6c0-113.2,91.8-204.6,204.6-204.6c47.6,0,91.4,16.4,126.3,43.5
		C378.4,407.2,346.3,397.8,311.8,397.8L311.8,397.8z M311.8,397.8"/>
	<path class="st0" d="M327.2,735.7c4-0.7,8.4-1.7,12.4-3c16.4-7.7,31.5-17.8,41.5-31.5V506l-53.9,43.2V735.7z M327.2,735.7"/>
	<path class="st3" d="M189.9,679.1c13.4,19.8,31.8,35.8,53.9,46.2V598.8l-53.9,38.2V679.1z M189.9,679.1"/>
	<path class="st4" d="M257.5,730.7c13.7,4.7,28.5,7.4,43.9,7.4c3.3,0,6.7-0.3,9.7-0.3V554.6l-53.6,37.2V730.7z M257.5,730.7"/>
	<path class="st5" d="M400.2,712c59.6-59.6,59.6-156.7,0-216.3c-59.6-59.6-156.7-59.6-216.3,0c-21.4,21.1-35.2,47.2-41.2,74.7
		c3.3-38.2,19.4-75.4,48.6-104.5c65.6-65.6,172.1-65.6,238.1,0c65.6,65.6,65.6,172.1,0,238.1c-27.8,27.8-62.6,43.9-98.8,48.2
		C356,745.1,380.1,732,400.2,712L400.2,712z M400.2,712"/>
</g>
</svg>
